<?xml version="1.0" encoding="UTF-8"?>
<svg width="31px" height="31px" viewBox="0 0 31 31" version="1.1" xmlns="http://www.w3.org/2000/svg" xmlns:xlink="http://www.w3.org/1999/xlink">
    <!-- Generator: Sketch 54.1 (76490) - https://sketchapp.com -->
    <title>车巴巴-油耗1</title>
    <desc>Created with Sketch.</desc>
    <g id="Page-1" stroke="none" stroke-width="1" fill="none" fill-rule="evenodd">
        <g id="2" transform="translate(-1394.000000, -158.000000)" fill-rule="nonzero">
            <g id="上" transform="translate(30.000000, 123.000000)">
                <g id="编组-8" transform="translate(708.500000, 30.000000)">
                    <g id="编组" transform="translate(621.500000, 3.000000)">
                        <g id="车巴巴-油耗1" transform="translate(31.750000, 0.000000)">
                            <rect id="矩形" fill="#000000" opacity="0" x="0" y="0" width="34.8577236" height="35"></rect>
                            <path d="M17.4230271,2.32029185 C16.7073604,2.32029185 16.1271983,2.9028219 16.1271983,3.6214097 L16.1271983,3.6214097 L16.1271983,6.06974973 C16.1271983,6.78833753 16.7073604,7.37086759 17.4230271,7.37086759 C18.1386938,7.37086759 18.7188558,6.78833753 18.7188558,6.06974973 L18.7188558,4.98912237 C25.0280788,5.64020594 29.9493716,10.9930117 29.9493716,17.5 C29.9493716,21.175553 28.3790501,24.4827357 25.8754184,26.7824265 C26.0329382,26.6242288 26.130404,26.405627 26.130404,26.1641857 C26.130404,25.6812681 25.7405059,25.2897786 25.2595514,25.2897786 L20.7853195,25.2897785 C20.7940628,25.2188816 20.799079,25.1467955 20.799079,25.0735202 L20.799079,22.061992 L24.2824896,22.061992 C24.6672671,22.061992 24.9791717,21.7487793 24.9791717,21.3624663 C24.9791717,21.3624663 24.9791717,21.3624663 24.9791717,21.3624313 L24.9791717,17.6138828 C25.3639492,17.6138828 25.6758538,17.3007051 25.6758538,16.9143571 L25.6758538,14.1162542 C25.6758538,13.7299411 25.3639492,13.4167285 24.9791717,13.4167285 L24.9791717,12.2686319 C24.9791717,11.8822838 24.6672671,11.5691061 24.2824896,11.5691061 L22.1924432,11.5691061 C21.8076657,11.5691061 21.4957611,11.8822838 21.4957611,12.2686319 C21.4957611,12.6549799 21.8076657,12.9681576 22.1924432,12.9681576 L23.5858074,12.9681576 L23.5858074,13.4167285 C23.2010299,13.4167285 22.8891253,13.7299411 22.8891253,14.1162542 L22.8891253,16.9143571 C22.8891253,17.3007051 23.2010299,17.6138828 23.5858074,17.6138828 L23.5858074,20.6629405 L20.799079,20.6629405 L20.799079,11.0844397 C20.799079,10.1186046 20.0192478,9.33562543 19.0573736,9.33562543 L12.0882882,9.33562543 C11.1263792,9.33562543 10.3465829,10.1186046 10.3465829,11.0844397 L10.3465829,25.0735202 C10.3465829,25.1467955 10.351599,25.2188466 10.3603076,25.2897785 L9.58416888,25.2897785 C9.10321437,25.2897785 8.71331623,25.6812681 8.71331623,26.1641857 C8.71331623,26.3970578 8.80416359,26.6084894 8.9519647,26.7652182 C6.45920123,24.4662619 4.89668256,21.1664242 4.89668256,17.500035 C4.89668256,14.0380822 6.28997713,10.9030877 8.54398766,8.62885963 L8.54304714,8.62791528 C8.77744583,8.3924899 8.9224254,8.0672804 8.9224254,7.70810893 C8.9224254,6.98952112 8.34226335,6.40699107 7.62659664,6.40699107 C7.24300346,6.40699107 6.89845934,6.57449249 6.66120422,6.84045219 C3.96793559,9.58129888 2.30502505,13.3454118 2.30502505,17.5 C2.30502505,25.883501 9.07360535,32.6797082 17.4230271,32.6797082 C25.7724488,32.6797082 32.5410291,25.883501 32.5410291,17.5 C32.5410291,9.11649901 25.7724488,2.32029185 17.4230271,2.32029185 Z M12.7850052,18.3639842 C12.7850052,17.7858262 13.2528969,17.3160597 13.8300284,17.3160597 L17.3156683,17.3160597 C17.8927998,17.3160597 18.3606915,17.7858612 18.3606915,18.3639842 C18.3606915,18.9434014 17.8927998,19.4132028 17.3156683,19.4132028 L13.8300284,19.4132028 C13.2528969,19.4132028 12.7850052,18.9434364 12.7850052,18.3639842 Z M12.0883231,12.1337633 C12.0883231,11.5542762 12.5562148,11.0844747 13.1333462,11.0844747 L18.0123505,11.0844747 C18.5894819,11.0844747 19.0573736,11.5542762 19.0573736,12.1337633 L19.0573736,14.5821034 C19.0573736,15.1615905 18.5894819,15.6313919 18.0123505,15.6313919 L13.1333462,15.6313919 C12.5562148,15.6313919 12.0883231,15.1615904 12.0883231,14.5821033 L12.0883231,12.1337633 Z M9.04883833,26.8535683 C9.19653493,26.9694097 9.38227039,27.0385928 9.58420371,27.0385928 L25.2595863,27.0385928 C25.4699146,27.0385928 25.662791,26.9637086 25.8133092,26.8390881 C23.5924608,28.8519034 20.6503373,30.0775074 17.4230271,30.0775074 C14.2034848,30.0775074 11.2677709,28.8577445 9.04883833,26.8535683 Z" id="形状" fill="#2674FD"></path>
                        </g>
                    </g>
                </g>
            </g>
        </g>
    </g>
</svg>