<?xml version="1.0" encoding="UTF-8"?>
<svg width="27px" height="33px" viewBox="0 0 27 33" version="1.1" xmlns="http://www.w3.org/2000/svg" xmlns:xlink="http://www.w3.org/1999/xlink">
    <!-- Generator: Sketch 54.1 (76490) - https://sketchapp.com -->
    <title>钱</title>
    <desc>Created with Sketch.</desc>
    <g id="Page-1" stroke="none" stroke-width="1" fill="none" fill-rule="evenodd">
        <g id="2" transform="translate(-1724.000000, -157.000000)" fill-rule="nonzero">
            <g id="上" transform="translate(30.000000, 123.000000)">
                <g id="编组-8" transform="translate(708.500000, 30.000000)">
                    <g id="编组" transform="translate(910.500000, 3.000000)">
                        <g id="钱" transform="translate(70.838608, 0.000000)">
                            <rect id="矩形" fill="#000000" opacity="0" x="0" y="0" width="34.9837913" height="35"></rect>
                            <path d="M28.7488871,21.5708008 C27.2730084,17.6333008 23.19726,13.34375 22.3329144,12.5131836 L22.3021669,12.4824219 C22.1996754,12.3901367 22.090351,12.2944336 21.9673611,12.1953125 C21.8751187,12.0961914 21.7897091,12.0107422 21.7111322,11.9287109 C21.9741939,12.1474609 22.3089997,12.2841797 22.6813858,12.2841797 C23.2758369,12.2841797 23.7848784,11.9389648 24.037691,11.4433594 C24.9225349,11.6210938 27.2422609,12.1269531 27.5463193,13.3984375 C27.6180634,13.6992187 27.8879578,13.9008789 28.1851834,13.9008789 C28.2364292,13.9008789 28.287675,13.894043 28.3389208,13.8837891 C28.6908085,13.7983398 28.9094572,13.4462891 28.8240476,13.0908203 C28.4414124,11.5014648 26.68539,10.7666016 25.3495831,10.4008789 C25.9816145,9.80957031 26.5487346,9.05761719 26.6136459,8.53466797 C26.6580589,8.18603516 26.4154955,7.88525391 26.0670242,7.82714844 C25.7185528,7.76904297 25.383747,8.01855469 25.3120029,8.36376953 C25.2402588,8.70556641 24.4169098,9.54638672 23.9351994,9.89160156 C23.6584721,9.49511719 23.2006764,9.23193359 22.6813858,9.23193359 C22.2235901,9.23193359 21.8170402,9.43701172 21.5368965,9.75830078 C21.6974667,9.51904297 21.8682859,9.35498047 21.9536956,9.27978516 C22.0151905,9.22509766 22.1313477,9.13623047 22.2816686,9.01660156 C23.9488649,7.70410156 25.5374844,6.60351562 25.8654574,5.58837891 C25.9576998,5.30810547 26.0191948,5.12695312 26.0636078,5.00732422 C26.1285191,4.82275391 26.3198367,4.28271484 25.8278772,4.03320312 C25.728802,3.92724609 25.5511499,3.80078125 25.2675899,3.80078125 C25.0455248,3.80078125 24.8234597,3.87597656 24.5398997,3.97167969 C24.0684384,4.13232422 23.4124924,4.31347656 22.9888605,4.13574219 C22.6335564,3.98535156 22.2919178,3.74267578 21.9331973,3.48632812 C21.2635856,3.01123047 20.505148,2.46777344 19.442652,2.39257812 C18.5988047,2.33105469 17.9121111,2.61816406 17.256165,2.89501953 C16.671963,3.14111328 16.1219249,3.37353516 15.3805692,3.37353516 L15.3771528,3.37353516 C14.6562954,3.35986328 13.8705266,3.25390625 13.1770003,3.16162109 C12.5244706,3.07275391 11.9607669,2.99755859 11.5063876,2.99755859 C11.31507,2.99755859 11.1544999,3.01123047 11.0485919,3.03515625 C10.9802642,2.98046875 10.8743562,2.85058594 10.7377008,2.64892578 C10.6317928,2.49169922 10.4678063,2.25244141 10.1330005,2.25244141 C9.94509926,2.25244141 9.76061443,2.34472656 9.64787369,2.49511719 C9.44972331,2.75830078 9.45997247,2.80273437 9.7913619,3.97167969 L9.8391913,4.13916016 C9.84944046,4.17675781 9.85968962,4.24511719 9.87677155,4.33740234 C9.99292867,4.99365234 10.2696559,6.27880859 11.0041789,7.07861328 C11.1066705,7.20849609 11.2194112,7.34863281 11.3424011,7.49902344 C11.9061048,8.19287109 12.6303786,9.08837891 12.9925155,10.0454102 C12.8148634,10.0830078 12.6372113,10.1103516 12.4595593,10.1513672 C12.1350026,10.2231445 11.9300195,10.5478516 12.0017636,10.8725586 C12.0735077,11.1972656 12.3980643,11.3989258 12.722621,11.3271484 C12.8866075,11.2895508 13.050594,11.262207 13.2145805,11.2314453 C13.2043314,11.5458984 13.1360037,11.8637695 12.9890991,12.1748047 C12.8968567,12.3081055 12.8046142,12.4140625 12.7157882,12.4892578 C9.66495562,15.0732422 7.49213421,18.2998047 6.26565168,21.5776367 C5.04941831,24.8212891 4.96400867,26.1508789 4.9810906,27.230957 C5.0050053,28.7109375 5.06650024,32.6381836 12.0632585,32.7407227 C18.3049955,32.8330078 19.097597,32.809082 22.9786114,32.7646484 C29.9651205,32.6894531 30.023199,28.7211914 30.0471137,27.2275391 C30.0505301,26.140625 29.9651205,24.8110352 28.7488871,21.5708008 L28.7488871,21.5708008 Z M12.2682417,6.98632813 C12.1520845,6.84277344 12.0427602,6.70605469 11.9129375,6.54541016 C11.4243943,6.01220703 11.1818309,4.82275391 11.075923,4.24511719 C11.1237524,4.24169922 11.1749982,4.23486328 11.2228276,4.22460938 C11.2672406,4.21435547 11.3492339,4.20410156 11.4961384,4.20410156 C11.8719409,4.20410156 12.421979,4.27929688 13.006181,4.35791016 C13.7304548,4.45361328 14.5538038,4.56640625 15.3429889,4.58007812 L15.4283986,4.58007812 C16.3542392,4.58007812 17.078513,4.27587891 17.7173771,4.00585938 C18.2947463,3.76318359 18.7798731,3.5546875 19.3469932,3.59570312 C20.071267,3.64697266 20.6315543,4.046875 21.2260054,4.46728516 C21.6223062,4.75097656 22.0322725,5.04150391 22.5105665,5.24316406 C23.2006764,5.53710938 24.1162678,5.37646484 24.7243845,5.17822266 C24.7209681,5.18847656 24.7175518,5.20214844 24.7141354,5.21240234 C24.5398997,5.74902344 23.4705709,6.53857422 21.5334801,8.06640625 C21.3660772,8.19970703 21.2396709,8.29882812 21.1713432,8.35693359 C20.9697765,8.52783203 20.4778169,8.90380859 20.1908405,9.63183594 C18.424569,9.35498047 16.3576555,9.38574219 14.1882505,9.72070313 C13.7748678,8.49023438 12.900273,7.765625 12.2682417,6.98632813 Z M21.4275722,11.6074219 C21.312689,11.4775391 21.2422767,11.3579102 21.2089235,11.1870117 C21.2126294,11.1870117 21.2163353,11.1904297 21.2237471,11.1904297 C21.268218,11.3408203 21.3349244,11.480957 21.4275722,11.6074219 Z M28.827464,27.2036133 C28.8035493,28.7006836 28.7625526,31.3803711 22.9512803,31.4453125 C19.5417272,31.4829102 19.1078462,31.5273438 12.0666749,31.4213867 C6.2383206,31.3359375 6.19390758,28.6870117 6.17340926,27.2036133 C6.15974372,26.2363281 6.2383206,25.0366211 7.38280986,21.9912109 C8.53754829,18.9082031 10.5907962,15.8491211 13.484475,13.3984375 C13.6621271,13.2480469 13.8363628,13.0498047 14.0003493,12.8071289 C14.0140148,12.7866211 14.0276804,12.7626953 14.0413459,12.7387695 C14.3351551,12.1508789 14.4410631,11.5698242 14.4171484,11.0092773 C16.4293996,10.7050781 18.3596577,10.6743164 19.9824409,10.9238281 C19.9824409,10.9716797 19.9756082,11.0126953 19.9790246,11.0605469 C20.0371031,11.9628906 20.4129056,12.3354492 20.8092063,12.7285156 C20.9014487,12.8208008 21.0005239,12.9199219 21.1098483,13.0361328 C21.1303466,13.0566406 21.1508449,13.0771484 21.1713432,13.0942383 C21.2943331,13.1967773 21.4070739,13.2924805 21.4958999,13.3745117 C21.9741939,13.8291016 26.2036796,18.1938477 27.6248961,21.9912109 C28.7625526,25.0400391 28.8411295,26.2363281 28.827464,27.2036133 L28.827464,27.2036133 Z M17.795954,21.440918 L17.795954,18.0844727 C18.557808,18.2416992 19.2445016,18.6005859 19.7979561,19.2089844 L20.5632265,18.2758789 C19.8628674,17.5478516 18.947276,17.059082 17.795954,16.9086914 L17.795954,15.4765625 L17.1297587,15.4765625 L17.1297587,15.4902344 L16.5455568,15.4902344 L16.5455568,16.8540039 C14.7075412,16.9907227 13.4298128,18.1118164 13.4298128,19.6875 C13.4298128,21.5708008 14.9842684,22.09375 16.5455568,22.5209961 L16.5455568,26.2431641 C15.3361562,26.1064453 14.4547286,25.4912109 13.873943,24.8041992 L13.1086726,25.7851562 C13.873943,26.6567383 15.0013503,27.3027344 16.5455568,27.3950195 L16.5455568,28.769043 L17.5533906,28.769043 L17.5533906,28.7587891 L17.795954,28.7587891 L17.795954,27.3574219 C19.9756082,27.1044922 20.7955408,25.7338867 20.7955408,24.4042969 C20.7955408,22.5004883 19.2991638,21.8818359 17.795954,21.440918 Z M16.5455568,21.1264648 C15.5035591,20.8188477 14.7451214,20.453125 14.7451214,19.6088867 C14.7451214,18.7202148 15.4591461,18.0776367 16.5455568,17.9990234 L16.5455568,21.1264648 Z M17.795954,26.2158203 L17.795954,22.8457031 C18.752542,23.1567383 19.4768158,23.5805664 19.4768158,24.5 C19.4802322,25.1870117 19.0566004,25.9936523 17.795954,26.2158203 Z" id="形状" stroke="#91B763" fill="#91B763"></path>
                        </g>
                    </g>
                </g>
            </g>
        </g>
    </g>
</svg>