<?xml version="1.0" encoding="UTF-8"?>
<svg width="28px" height="28px" viewBox="0 0 28 28" version="1.1" xmlns="http://www.w3.org/2000/svg" xmlns:xlink="http://www.w3.org/1999/xlink">
    <!-- Generator: Sketch 54.1 (76490) - https://sketchapp.com -->
    <title>员工健康档案登记</title>
    <desc>Created with Sketch.</desc>
    <g id="Page-1" stroke="none" stroke-width="1" fill="none" fill-rule="evenodd">
        <g id="1" transform="translate(-1021.000000, -36.000000)" fill-rule="nonzero">
            <g id="top">
                <g id="员工健康档案登记" transform="translate(1020.000000, 35.000000)">
                    <rect id="矩形" fill="#000000" opacity="0" x="0" y="0" width="30" height="30"></rect>
                    <path d="M1.39999338,7.44444125 L25.5853276,7.44444125 C26.3871337,7.44644216 27.1552823,7.76698232 27.7206857,8.33550321 C28.2860891,8.90402409 28.6024007,9.67392362 28.5999927,10.4757286 L28.5999927,25.5686984 C28.6024007,26.3705033 28.2860891,27.1404029 27.7206857,27.7089238 C27.1552823,28.2774446 26.3871337,28.5979848 25.5853276,28.5999857 L4.41467211,28.5999857 C3.61286604,28.5979848 2.84471742,28.2774446 2.27931405,27.7089238 C1.71391068,27.1404029 1.3975991,26.3705033 1.40000702,25.5686984 L1.39999338,7.44444125 Z M8.74098093,19.4154572 L14.9999999,25.5777651 L21.2590188,19.4154572 C22.0876165,18.6047045 22.5546476,17.4943232 22.5546476,16.3350588 C22.5546476,15.1757944 22.0876165,14.0654131 21.2590188,13.2546604 C19.5194793,11.5534341 16.7395394,11.5534341 14.9999999,13.2546604 C13.2604603,11.5534341 10.4805205,11.5534341 8.74098093,13.2546604 C7.91238327,14.0654131 7.44535214,15.1757944 7.44535214,16.3350588 C7.44535214,17.4943232 7.91238327,18.6047045 8.74098093,19.4154572 L8.74098093,19.4154572 Z M1.40000702,4.04444304 C1.40000702,2.58471047 2.58622864,1.4 4.03236121,1.4 L13.878756,1.4 C15.3324441,1.4 16.5111102,2.57413272 16.5111102,4.04444304 L16.5111102,6.68888612 L1.40000702,6.68888612 L1.40000702,4.04444304 Z" id="形状" fill="#5880E4"></path>
                </g>
            </g>
        </g>
    </g>
</svg>