<?xml version="1.0" encoding="UTF-8"?>
<svg width="34px" height="34px" viewBox="0 0 34 34" version="1.1" xmlns="http://www.w3.org/2000/svg" xmlns:xlink="http://www.w3.org/1999/xlink">
    <!-- Generator: Sketch 54.1 (76490) - https://sketchapp.com -->
    <title>编组 9</title>
    <desc>Created with Sketch.</desc>
    <g id="Page-1" stroke="none" stroke-width="1" fill="none" fill-rule="evenodd">
        <g id="1-展开" transform="translate(-61.000000, -359.000000)">
            <g id="编组-12" transform="translate(-20.000000, -33.000000)">
                <g id="编组-11" transform="translate(60.000000, 290.000000)">
                    <g id="编组-10">
                        <g id="编组-9" transform="translate(22.000000, 103.000000)">
                            <circle id="椭圆形" stroke="#4A90E2" stroke-width="0.9" cx="16" cy="16" r="16"></circle>
                            <g id="展开" transform="translate(9.142857, 9.142857)" fill-rule="nonzero">
                                <rect id="矩形" fill="#000000" opacity="0" x="0" y="0" width="14.6285714" height="14.6285714"></rect>
                                <path d="M4.07954286,14.6041905 C4.00304761,14.6041905 3.92624761,14.5752381 3.86681904,14.5179429 C3.74613333,14.4003048 3.74369523,14.2073905 3.86102857,14.0870095 L10.129981,7.65074286 C10.2375619,7.54041904 10.2473143,7.40205714 10.2436571,7.32952381 C10.2500571,7.17409524 10.2095238,7.06011429 10.129981,6.9784381 L3.86102857,0.5415619 C3.74369524,0.420876186 3.74613333,0.2279619 3.86681904,0.110628571 C3.9872,-0.00670475714 4.18041904,-0.00426667143 4.29775237,0.116419043 L10.5670095,6.55329523 C10.7657143,6.75779047 10.8672,7.03329523 10.8528762,7.3295238 C10.8675048,7.59558094 10.766019,7.87139047 10.5670095,8.0758857 L4.29775239,14.5118476 C4.23801904,14.5734095 4.15878096,14.6041905 4.07954286,14.6041905 Z" id="路径" fill="#4A90E2"></path>
                            </g>
                        </g>
                    </g>
                </g>
            </g>
        </g>
    </g>
</svg>