<?xml version="1.0" encoding="UTF-8"?>
<svg width="25px" height="35px" viewBox="0 0 25 35" version="1.1" xmlns="http://www.w3.org/2000/svg" xmlns:xlink="http://www.w3.org/1999/xlink">
    <!-- Generator: Sketch 54.1 (76490) - https://sketchapp.com -->
    <title>定位</title>
    <desc>Created with Sketch.</desc>
    <g id="Page-1" stroke="none" stroke-width="1" fill="none" fill-rule="evenodd">
        <g id="2" transform="translate(-797.000000, -153.000000)" fill-rule="nonzero">
            <g id="上" transform="translate(30.000000, 123.000000)">
                <g id="编组-8" transform="translate(708.500000, 30.000000)">
                    <g id="编组" transform="translate(0.500000, 0.000000)">
                        <g id="定位" transform="translate(53.320313, 0.000000)">
                            <rect id="矩形" fill="#000000" opacity="0" x="0" y="0" width="34.1796875" height="35"></rect>
                            <path d="M28.9965015,12.1931175 C28.9965015,5.66821124 23.9907786,0.340102212 17.6970578,0.0166950684 C10.5825588,-0.349642241 4.89626994,5.42446338 5.19439599,12.7125724 C5.37276052,17.0152842 7.75471499,20.9024299 11.4606332,22.9385349 C12.1294033,23.3062888 12.7005326,23.8354577 13.1245493,24.4802044 L16.2884122,29.2950596 C16.4631706,29.5609639 16.7556622,29.7204167 17.068664,29.7204167 C17.3816658,29.7204167 17.6741573,29.5609639 17.8489158,29.2950596 L20.9890217,24.5178876 C21.4184301,23.8658727 21.9978497,23.3320107 22.676229,22.963339 C26.5668429,20.8473574 28.9981866,16.7041641 28.9965015,12.1931175 L28.9965015,12.1931175 Z" id="路径" fill="#2674FD"></path>
                            <path d="M8.16634021,12.1931175 C8.16614522,15.4579156 9.86696002,18.4747989 12.6280585,20.1072556 C15.3891569,21.7397122 18.7910267,21.7397122 21.5521252,20.1072556 C24.3132236,18.4747989 26.0140384,15.4579156 26.0138434,12.1931175 C26.0140384,8.92831948 24.3132236,5.91143622 21.5521252,4.27897955 C18.7910267,2.64652287 15.3891569,2.64652287 12.6280585,4.27897955 C9.86696002,5.91143622 8.16614522,8.92831948 8.16634021,12.1931175 L8.16634021,12.1931175 Z" id="路径" fill="#FFFFFF"></path>
                            <path d="M11.0344061,12.1931175 C11.0342455,14.408639 12.1884175,16.4559357 14.0621192,17.5637439 C15.9358208,18.6715521 18.2443628,18.6715521 20.1180644,17.5637439 C21.9917661,16.4559357 23.1459381,14.408639 23.1457775,12.1931175 C23.1459381,9.97759607 21.9917661,7.93029941 20.1180644,6.82249119 C18.2443628,5.71468296 15.9358208,5.71468296 14.0621192,6.82249119 C12.1884175,7.93029941 11.0342455,9.97759607 11.0344061,12.1931175 L11.0344061,12.1931175 Z" id="路径" fill="#FFE41F"></path>
                            <path d="M17.0444412,35 C15.9572128,35 14.8699843,34.8091993 13.9439302,34.427598 L7.60316144,31.8269847 C6.89556156,31.5272238 6.55534243,30.7001601 6.84022338,29.9723026 C7.12510433,29.244445 7.92896636,28.8869227 8.64287609,29.1705622 L14.9841106,31.7730835 C16.1533238,32.2529472 17.9187891,32.2548552 19.0954554,31.7773765 L25.4981785,29.1734242 C26.2137726,28.8886444 27.0197155,29.2483219 27.3031457,29.9789477 C27.5865758,30.7095736 27.241344,31.5375166 26.5299741,31.8331857 L20.1267853,34.439523 C19.2044577,34.8125383 18.1242166,35 17.0444412,35 Z" id="路径" fill="#2674FD"></path>
                        </g>
                    </g>
                </g>
            </g>
        </g>
    </g>
</svg>