<?xml version="1.0" encoding="UTF-8"?>
<svg width="22px" height="37px" viewBox="0 0 22 37" version="1.1" xmlns="http://www.w3.org/2000/svg" xmlns:xlink="http://www.w3.org/1999/xlink">
    <!-- Generator: Sketch 54.1 (76490) - https://sketchapp.com -->
    <title>展开</title>
    <desc>Created with Sketch.</desc>
    <g id="Page-1" stroke="none" stroke-width="1" fill="none" fill-rule="evenodd">
        <g id="1" transform="translate(0.000000, -522.000000)">
            <g id="展开" transform="translate(-18.000000, 522.000000)">
                <ellipse id="椭圆形" fill="#DD5434" cx="20" cy="18.5" rx="20" ry="18.5"></ellipse>
                <g transform="translate(18.000000, 11.000000)" fill-rule="nonzero">
                    <rect id="矩形" fill="#000000" opacity="0" x="0" y="0" width="16" height="16"></rect>
                    <path d="M13.568,2.784 L2.432,2.784 C2.25066667,2.784 2.112,2.64533333 2.112,2.464 C2.112,2.28266667 2.25066667,2.144 2.432,2.144 L13.568,2.144 C13.7493333,2.144 13.888,2.28266667 13.888,2.464 C13.888,2.64533333 13.7493333,2.784 13.568,2.784 Z M13.568,6.47466667 L8,6.47466667 C7.81866667,6.47466667 7.68,6.336 7.68,6.15466667 C7.68,5.97333334 7.81866667,5.83466667 8,5.83466667 L13.568,5.83466667 C13.7493333,5.83466667 13.888,5.97333334 13.888,6.15466667 C13.888,6.336 13.7493333,6.47466667 13.568,6.47466667 Z M13.568,10.1653333 L8,10.1653333 C7.81866667,10.1653333 7.68,10.0266667 7.68,9.84533333 C7.68,9.664 7.81866667,9.52533333 8,9.52533333 L13.568,9.52533333 C13.7493333,9.52533333 13.888,9.664 13.888,9.84533333 C13.888,10.0266667 13.7493333,10.1653333 13.568,10.1653333 Z M13.568,13.856 L2.432,13.856 C2.25066667,13.856 2.112,13.7173333 2.112,13.536 C2.112,13.3546667 2.25066667,13.216 2.432,13.216 L13.568,13.216 C13.7493333,13.216 13.888,13.3546667 13.888,13.536 C13.888,13.7173333 13.7493333,13.856 13.568,13.856 Z M5.632,8 L4.032,7.072 L2.432,6.15466667 L2.432,9.84533333 L4.032,8.928 L5.632,8 Z" id="形状" fill="#FFFFFF"></path>
                </g>
            </g>
        </g>
    </g>
</svg>