<?xml version="1.0" encoding="UTF-8"?>
<svg width="30px" height="30px" viewBox="0 0 30 30" version="1.1" xmlns="http://www.w3.org/2000/svg" xmlns:xlink="http://www.w3.org/1999/xlink">
    <!-- Generator: Sketch 54.1 (76490) - https://sketchapp.com -->
    <title>设备维护</title>
    <desc>Created with Sketch.</desc>
    <g id="Page-1" stroke="none" stroke-width="1" fill="none" fill-rule="evenodd">
        <g id="1" transform="translate(-766.000000, -35.000000)" fill-rule="nonzero">
            <g id="top">
                <g id="设备维护" transform="translate(766.000000, 35.000000)">
                    <rect id="矩形" fill="#000000" opacity="0" x="0" y="0" width="30" height="30"></rect>
                    <path d="M12.6346797,13.0285816 C19.0700172,13.0285816 24.2940931,11.0298369 24.2940931,8.54986224 L24.2940931,4.97572753 C24.2940931,2.49575289 19.0700172,0.497008168 12.6346797,0.497008168 C6.19934219,0.497008168 0.975266335,2.49575289 0.975266335,4.97572753 L0.975266335,8.54986224 C0.975637205,11.0152542 6.18784521,13.0285816 12.6346797,13.0285816 Z M29.7673936,16.0608769 C29.7673936,16.0608769 28.1997258,18.007215 28.0339469,18.2008918 C27.8763271,18.3945686 27.3289229,18.3740617 27.3289229,18.3740617 C27.3289229,18.3740617 25.8940266,18.1803849 25.6867102,17.9256429 C25.4793938,17.6709009 25.3384632,15.8261862 25.3384632,15.8261862 C25.3384632,15.8261862 25.2969257,15.3167023 25.5042421,15.0619603 L27.2462188,12.9219454 C27.2462188,12.9219454 27.4453761,12.6466965 27.1549848,12.6466965 C26.2344853,12.6466965 24.3682671,12.6667477 23.4640858,13.7777691 L23.2816178,14.0019785 C22.2116576,15.3267279 22.1452719,17.3140799 23.0079156,18.7409083 L17.7159706,24.6318735 C17.2928078,25.1518387 16.7372444,26.5581603 17.7159706,27.750298 C18.6946967,28.9529171 19.8392017,28.2702633 20.2538345,27.750298 C20.2538345,27.750298 25.0395419,21.2482256 25.0310119,21.2587069 L25.039171,21.2486813 C26.2003652,22.3186887 27.8095705,22.2371166 28.8876898,20.9123672 L29.0701579,20.6881578 C29.9494908,19.6081248 29.9743391,17.3350425 29.9743391,16.183463 C29.9913991,15.8266419 29.7673936,16.0608769 29.7673936,16.0608769 L29.7673936,16.0608769 Z M19.1260186,27.0981768 C18.6364701,27.0981768 18.2385265,26.6091998 18.2385265,26.0076624 C18.2385265,25.406125 18.6364701,24.917148 19.1260186,24.917148 C19.6151962,24.917148 20.0135107,25.406125 20.0135107,26.0076624 C20.0135107,26.6091998 19.6155671,27.0981768 19.1260186,27.0981768 Z M16.281816,23.5431819 C15.134344,23.6880977 13.9082475,23.7664799 12.6350506,23.7664799 C6.19971306,23.7664799 0.987505048,21.7677352 0.987505048,19.2877605 L0.987505048,24.6564818 C0.987505048,27.1218737 6.19971306,29.1352012 12.6469184,29.1352012 C13.5321853,29.1352012 14.3944582,29.0973772 15.2237237,29.025375 C15.1379873,28.9431003 15.0564867,28.8543703 14.9796912,28.759696 C13.7973574,27.3191962 14.4686322,25.6203088 14.9796912,24.9927959 L16.281816,23.5431819 L16.281816,23.5431819 Z M12.6346797,21.0818914 C15.0627661,21.0818914 17.3183979,20.7970725 19.1864704,20.3094627 L21.3716369,17.8768819 C20.7645226,16.8724967 20.5382918,15.6379779 20.7114882,14.4658914 C18.6157014,15.2387758 15.7689027,15.7127144 12.6350506,15.7127144 C6.19971306,15.7127144 0.975637205,13.7139697 0.975637205,11.233995 L0.975637205,16.6027163 C0.975637205,19.0685639 6.18784521,21.0818914 12.6346797,21.0818914 Z" id="形状" fill="#FB5185"></path>
                </g>
            </g>
        </g>
    </g>
</svg>