<?xml version="1.0" encoding="UTF-8"?>
<svg width="26px" height="28px" viewBox="0 0 26 28" version="1.1" xmlns="http://www.w3.org/2000/svg" xmlns:xlink="http://www.w3.org/1999/xlink">
    <!-- Generator: Sketch 54.1 (76490) - https://sketchapp.com -->
    <title>评价报告</title>
    <desc>Created with Sketch.</desc>
    <g id="Page-1" stroke="none" stroke-width="1" fill="none" fill-rule="evenodd">
        <g id="1" transform="translate(-531.000000, -36.000000)" fill-rule="nonzero">
            <g id="top">
                <g id="评价报告" transform="translate(529.000000, 35.000000)">
                    <rect id="矩形" fill="#000000" opacity="0" x="0" y="0" width="30" height="30"></rect>
                    <path d="M2.21083008,17.4346582 L6.39958008,17.4346582 L6.39958008,28.2104297 L2.21083008,28.2104297 L2.21083008,17.4346582 Z M9.38569336,13.4303613 L13.5744434,13.4303613 L13.5744434,28.210459 L9.38569336,28.210459 L9.38569336,13.4303613 L9.38569336,13.4303613 Z M16.9274414,15.7227539 L21.1161914,15.7227539 L21.1161914,28.2167578 L16.9274414,28.2167578 L16.9274414,15.7227539 Z M23.6004492,10.130332 L27.7891992,10.130332 L27.7891992,28.2167578 L23.6004492,28.2167578 L23.6004492,10.130332 Z M25.6948828,1.77407227 C24.6582715,1.77407227 23.8179492,2.61439453 23.8179492,3.65100586 C23.8179492,3.75301758 23.8603711,3.84108398 23.8760156,3.93864258 L20.1285059,7.56911133 C19.8370313,7.38292969 19.5106348,7.24719727 19.1390918,7.24719727 C18.417627,7.24719727 17.8108008,7.66763672 17.4965918,8.26438477 L13.2493359,7.42792969 C13.0159863,6.65683594 12.3274512,6.08458008 11.480127,6.08458008 C10.5651563,6.08458008 9.83874023,6.75222656 9.67242187,7.61862305 L5.41930664,10.168623 C5.10439453,9.92979492 4.73091797,9.76245117 4.30520508,9.76245117 C3.26859375,9.76245117 2.42827148,10.6029199 2.42827148,11.639502 C2.42827148,12.676084 3.26862305,13.5164355 4.30520508,13.5164355 C5.22032227,13.5164355 5.94697266,12.8485547 6.11302734,11.9819238 L10.3655273,9.4321875 C10.6804395,9.67136719 11.0541504,9.83859375 11.4800977,9.83859375 C11.9841797,9.83859375 12.4374316,9.63424805 12.7746387,9.31078125 L17.6763574,10.2788965 C18.0205664,10.6772754 18.512666,10.9424707 19.0805273,10.9424707 C20.011875,10.9424707 20.7502734,10.2518262 20.8975781,9.36222656 L25.1368652,5.41532227 C25.315957,5.47209961 25.4969531,5.52793945 25.6948828,5.52793945 C26.7314941,5.52793945 27.5718164,4.68761719 27.5718164,3.65103516 C27.5718164,2.61442383 26.7314648,1.77407227 25.6948828,1.77407227 Z" id="形状" fill="#3EB8E7"></path>
                </g>
            </g>
        </g>
    </g>
</svg>