<?xml version="1.0" encoding="UTF-8"?>
<svg width="29px" height="31px" viewBox="0 0 29 31" version="1.1" xmlns="http://www.w3.org/2000/svg" xmlns:xlink="http://www.w3.org/1999/xlink">
    <!-- Generator: Sketch 54.1 (76490) - https://sketchapp.com -->
    <title>时间</title>
    <desc>Created with Sketch.</desc>
    <g id="Page-1" stroke="none" stroke-width="1" fill="none" fill-rule="evenodd">
        <g id="2" transform="translate(-1090.000000, -156.000000)" fill-rule="nonzero">
            <g id="上" transform="translate(30.000000, 123.000000)">
                <g id="编组-8" transform="translate(708.500000, 30.000000)">
                    <g id="编组" transform="translate(323.500000, 1.000000)">
                        <g id="时间" transform="translate(25.083333, 0.000000)">
                            <rect id="矩形" fill="#000000" opacity="0" x="0" y="0" width="34.8577236" height="35"></rect>
                            <path d="M7.43790293,32.699707 C7.16217289,32.4980469 7.10089955,32.1083984 7.29833587,31.831543 L11.1789809,26.4448242 C11.3798213,26.1679688 11.7678858,26.1064453 12.0436158,26.3046875 C12.3193459,26.5063477 12.3806192,26.8959961 12.1831829,27.1728516 L8.30253787,32.5595703 C8.10510155,32.8364258 7.71703705,32.9013672 7.43790293,32.699707 Z M27.3040821,32.699707 C27.5798122,32.4980469 27.6410855,32.1083984 27.4436492,31.831543 L23.5630042,26.4448242 C23.3621638,26.1679688 22.9740993,26.1064453 22.6983692,26.3046875 C22.4226392,26.5063477 22.3613658,26.8959961 22.5588022,27.1728516 L26.4394472,32.5595703 C26.6368835,32.8364258 27.024948,32.9013672 27.3040821,32.699707 Z" id="形状" fill="#A4BEFF"></path>
                            <path d="M25.7960771,8.40820312 L27.4572655,6.10449219 C27.6581059,5.82763672 27.5934284,5.43798828 27.3176984,5.23632812 C27.0419684,5.03466797 26.6539039,5.09960937 26.4530635,5.37646484 L24.7952792,7.67675781 C22.6983692,6.27880859 20.1895663,5.46875 17.5003474,5.46875 C14.7021981,5.46875 12.1048892,6.34375 9.96032219,7.83740234 L8.18339526,5.37304687 C7.98255486,5.09619141 7.59449036,5.03466797 7.31876032,5.23291016 C7.04303028,5.43457031 6.98175694,5.82421875 7.17919326,6.10107422 L8.97654464,8.59277344 C6.07967718,11.0400391 4.23466876,14.7041016 4.23466876,18.7885742 C4.23466876,26.1235352 10.1917993,32.1083984 17.5003474,32.1083984 C24.8088955,32.1083984 30.7660259,26.1269531 30.7660259,18.7885742 C30.7626219,14.5981445 28.8222994,10.8520508 25.7960771,8.40820312 Z" id="路径" fill="#5B79FB"></path>
                            <path d="M9.8705899,26.4489235 C12.5966645,29.1861945 16.5700618,30.25522 20.2939888,29.2532944 C24.0179159,28.2513687 26.9265959,25.3307146 27.9243187,21.5915529 C28.9220415,17.8523911 27.8572229,13.8628132 25.1309838,11.1257073 C22.4049093,8.38843633 18.431512,7.31941078 14.7075849,8.32133642 C10.9836578,9.32326206 8.07497783,12.2439162 7.07725503,15.9830779 C6.07953224,19.7222397 7.14435085,23.7118176 9.8705899,26.4489235 Z" id="路径" fill="#FFFFFF"></path>
                            <path d="M10.0079792,2.19091797 C11.8529876,2.19091797 13.5073679,3.01123047 14.6307125,4.30664062 C10.3926397,5.14746094 6.80814914,7.8203125 4.72825958,11.4672852 C4.19041579,10.5512695 3.88064501,9.48486328 3.88064501,8.34326172 C3.88064501,4.94580078 6.62432911,2.19091797 10.0079792,2.19091797 Z M24.9893114,2.19091797 C28.3729615,2.19091797 31.1166456,4.94580078 31.1166456,8.34326172 C31.1166456,9.48486328 30.8068748,10.5512695 30.2690311,11.4672852 C28.1925456,7.8203125 24.6080551,5.14746094 20.3665781,4.30664062 C21.4899227,3.01123047 23.144303,2.19091797 24.9893114,2.19091797 L24.9893114,2.19091797 Z" id="形状" fill="#A4BEFF"></path>
                            <path d="M17.5003474,10.8964844 C17.8407548,10.8964844 18.1198889,11.1767578 18.1198889,11.5185547 L18.1198889,18.1665039 C18.1198889,18.5083008 17.8407548,18.7885742 17.5003474,18.7885742 C17.1599399,18.7885742 16.8808058,18.5083008 16.8808058,18.1665039 L16.8808058,11.5185547 C16.8808058,11.1767578 17.1599399,10.8964844 17.5003474,10.8964844 Z" id="路径" fill="#FF7E71"></path>
                            <path d="M12.5508229,14.3520508 C12.7788959,14.0957031 13.1703645,14.0751953 13.4256701,14.3007812 L17.4492862,17.9101562 C17.7045918,18.1391602 17.7250163,18.5322266 17.5003474,18.7885742 C17.2722744,19.0449219 16.8808058,19.0654297 16.6255002,18.8398438 L12.6018841,15.2304688 C12.3465785,15.0048828 12.3227499,14.6083984 12.5508229,14.3520508 L12.5508229,14.3520508 Z" id="路径" fill="#FF7E71"></path>
                            <path d="M17.5003474,10.2539063 C17.8781996,10.2539063 18.1845663,9.94628906 18.1845663,9.56689453 C18.1845663,9.1875 17.8781996,8.87988281 17.5003474,8.87988281 C17.1224951,8.87988281 16.8161284,9.1875 16.8161284,9.56689453 C16.8161284,9.94628906 17.1224951,10.2539063 17.5003474,10.2539063 Z M27.7227833,19.0551758 C27.7227833,19.4345703 27.4164166,19.7421875 27.0385643,19.7421875 C26.660712,19.7421875 26.3543453,19.4345703 26.3543453,19.0551758 C26.3543453,18.6757812 26.660712,18.3681641 27.0385643,18.3681641 C27.4164166,18.3681641 27.7227833,18.6757812 27.7227833,19.0551758 Z M17.5922574,29.3193359 C17.2144051,29.3193359 16.9080384,29.0117188 16.9080384,28.6323242 C16.9080384,28.2529297 17.2144051,27.9453125 17.5922574,27.9453125 C17.9701096,27.9453125 18.2764764,28.2529297 18.2764764,28.6323242 C18.2764764,29.0117188 17.9701096,29.3193359 17.5922574,29.3193359 Z M7.36641737,19.1474609 C7.36641737,18.7680664 7.67278408,18.4604492 8.05063635,18.4604492 C8.42848863,18.4604492 8.73485534,18.7680664 8.73485534,19.1474609 C8.73485534,19.5268555 8.42848863,19.8344727 8.05063635,19.8344727 C7.67278408,19.8344727 7.36641737,19.5268555 7.36641737,19.1474609 L7.36641737,19.1474609 Z" id="形状" fill="#5B79FB"></path>
                            <path d="M17.5003474,20.3950195 C18.3820027,20.3950195 19.1002624,19.6738281 19.1002624,18.7885742 C19.1002624,17.9033203 18.3820027,17.1821289 17.5003474,17.1821289 C16.618692,17.1821289 15.9004323,17.9033203 15.9004323,18.7885742 C15.8970282,19.6738281 16.618692,20.3950195 17.5003474,20.3950195 Z" id="路径" fill="#FF7E71"></path>
                        </g>
                    </g>
                </g>
            </g>
        </g>
    </g>
</svg>